<svg width="216" height="216" viewBox="0 0 216 216" fill="none" xmlns="http://www.w3.org/2000/svg">
<rect x="0.5" y="0.5" width="215" height="215" rx="35.5" fill="white"/>
<rect x="0.5" y="0.5" width="215" height="215" rx="35.5" stroke="black"/>
<path d="M34.3564 107.89C34.3564 107.077 35.0153 106.418 35.8278 106.418C36.6403 106.418 37.2992 107.077 37.2992 107.89C37.2992 108.702 36.6403 109.361 35.8278 109.361C35.0153 109.361 34.3564 108.702 34.3564 107.89Z" fill="black"/>
<path d="M66.576 66.532C66.576 66.532 49.6624 63.0739 41.1352 69.2437C41.1352 69.2437 49.9944 76.8855 49.7953 87.3277C49.5957 97.7704 53.5988 109.786 63.7398 115.255C73.8797 120.723 85.7786 121.213 90.5775 120.286C90.5775 120.286 63.0675 119.672 58.8249 106.264C58.8249 106.264 52.5087 96.7481 52.6315 87.432C52.7532 78.1152 45.9133 70.0002 44.9673 69.966C44.023 69.9312 78.4122 54.4755 101.593 103.676C101.593 103.676 92.969 72.6301 66.576 66.532Z" fill="black"/>
<path d="M113.28 45.0689C109.321 45.8607 108.679 46.5028 107.887 50.4622C107.095 46.5028 106.453 45.8607 102.494 45.0689C106.453 44.2772 107.095 43.6351 107.887 39.6757C108.679 43.6351 109.321 44.2772 113.28 45.0689Z" fill="black"/>
<path d="M113.28 170.7C109.321 171.491 108.679 172.133 107.887 176.093C107.095 172.133 106.453 171.491 102.494 170.7C106.453 169.908 107.095 169.266 107.887 165.306C108.679 169.266 109.321 169.908 113.28 170.7Z" fill="black"/>
<path d="M50.7513 75.918C51.3602 77.1297 51.9238 78.4329 52.3886 79.8308C52.7172 76.0284 53.426 72.3348 54.4825 68.7876C53.7064 68.8431 52.955 68.9137 52.2619 69.0074C51.6266 71.2604 51.1102 73.5634 50.7513 75.918Z" fill="black"/>
<path d="M163.577 69.2356C162.881 69.1111 162.133 69.0062 161.328 68.9176C162.122 71.6053 162.715 74.3759 163.096 77.2144C163.593 76.0906 164.143 75.0746 164.705 74.1275C164.398 72.4705 164.022 70.8398 163.577 69.2356Z" fill="black"/>
<path d="M163.608 100.859V131.108C163.608 161.832 138.612 186.827 107.887 186.827H107.886C77.1622 186.827 52.166 161.832 52.166 131.108V104.036C51.2969 102.172 50.6105 100.238 50.0901 98.2812V131.108C50.0901 162.976 76.0177 188.904 107.887 188.904C139.756 188.904 165.684 162.976 165.684 131.108V89.8022C165.527 93.3854 164.879 97.1967 163.608 100.859Z" fill="black"/>
<path d="M180.034 110.223C179.617 110.223 179.247 110.084 178.908 109.893V131.857C178.908 171.018 147.048 202.878 107.887 202.878C68.7268 202.878 36.866 171.018 36.866 131.857V109.789C36.4931 110.041 36.0692 110.223 35.5852 110.223C35.3032 110.223 35.0402 110.154 34.7901 110.062V131.857C34.7901 172.162 67.5812 204.954 107.887 204.954C148.193 204.954 180.984 172.162 180.984 131.857V110.012C180.692 110.143 180.374 110.223 180.034 110.223Z" fill="black"/>
<path d="M178.475 107.89C178.475 107.077 179.134 106.418 179.946 106.418C180.759 106.418 181.417 107.077 181.417 107.89C181.417 108.702 180.759 109.361 179.946 109.361C179.134 109.361 178.475 108.702 178.475 107.89Z" fill="black"/>
<path d="M87.0696 82.7432C81.9366 83.2204 77.5712 82.4073 73.7699 80.2636C69.321 77.7728 65.9403 74.3904 62.7373 69.231H62.3829C65.4059 74.3904 69.4982 78.1277 73.9477 80.7963C78.8385 83.7318 83.6463 85.2127 89.0619 85.2615C88.4025 84.4187 87.7386 83.5792 87.0696 82.7432Z" fill="black"/>
<path d="M171.453 64.4269C160.955 60.3346 151.881 58.021 137.645 63.8925C118.608 71.7221 124.657 69.4085 101.527 78.8396C98.0968 80.2516 94.9651 81.2508 92.0425 81.9276C92.8096 82.9033 93.5621 83.8913 94.3 84.8895C97.2916 84.4409 100.483 83.6424 104.018 82.3975V143.784C104.018 146.453 103.483 148.409 102.594 149.833C101.882 150.9 100.992 151.612 99.9254 151.612V151.969H113.626V151.789C111.313 151.612 109.534 148.231 109.534 145.386V80.0839L143.339 66.0284C154.727 61.2239 164.158 62.291 171.63 65.139C177.502 67.4521 183.73 71.7221 187.645 76.1716L188 75.9916C183.196 70.8328 177.502 66.7405 171.453 64.4269Z" fill="black"/>
<path d="M87.0696 82.7432C81.9366 83.2204 77.5712 82.4073 73.7699 80.2636C69.321 77.7728 65.9403 74.3904 62.7373 69.231H62.3829C65.4059 74.3904 69.4982 78.1277 73.9477 80.7963C78.8385 83.7318 83.6463 85.2127 89.0619 85.2615C88.4025 84.4187 87.7386 83.5792 87.0696 82.7432Z" fill="black"/>
<path d="M154.651 119.661C154.311 119.391 153.952 119.135 153.573 118.925C153.244 118.743 156.078 124.451 155.434 128.322C154.324 135.002 146.567 138.444 147.185 145.803C147.26 146.693 147.849 147.634 147.885 148.455C147.73 145.925 148.897 143.486 150.379 141.43C153.246 137.452 157.423 133.973 158.181 128.867C158.558 126.324 157.954 123.641 156.448 121.549C155.938 120.842 155.333 120.203 154.651 119.661Z" fill="black"/>
<path d="M147.906 66.532C121.513 72.6301 112.89 103.676 112.89 103.676C136.069 54.4755 170.459 69.9312 169.514 69.966C168.568 70.0002 161.729 78.1152 161.851 87.432C161.972 96.7481 155.657 106.264 155.657 106.264C151.414 119.672 123.905 120.286 123.905 120.286C128.703 121.213 140.601 120.723 150.742 115.255C160.883 109.786 164.887 97.7704 164.687 87.3277C164.488 76.8855 173.347 69.2437 173.347 69.2437C164.82 63.0739 147.906 66.532 147.906 66.532Z" fill="black"/>
<path d="M140.61 147.495C134.787 146.385 130.444 143.971 127.721 138.529C124.534 132.158 123.469 124.662 116.933 120.641C119.764 122.383 121.575 126.752 122.414 129.812C123.456 133.609 123.676 137.692 125.569 141.216C127.478 144.773 130.936 147.299 134.661 148.857C139.02 150.681 143.768 151.331 148.385 152.169C150.909 152.626 153.839 153.289 155.517 155.419C151.806 150.709 146.335 148.586 140.61 147.495Z" fill="black"/>
<path d="M66.576 66.532C66.576 66.532 49.6624 63.0739 41.1352 69.2437C41.1352 69.2437 49.9944 76.8855 49.7953 87.3277C49.5957 97.7704 53.5988 109.786 63.7398 115.255C73.8797 120.723 85.7786 121.213 90.5775 120.286C90.5775 120.286 63.0675 119.672 58.8249 106.264C58.8249 106.264 52.5087 96.7481 52.6315 87.432C52.7532 78.1152 45.9133 70.0002 44.9673 69.966C44.023 69.9312 78.4122 54.4755 101.593 103.676C101.593 103.676 92.969 72.6301 66.576 66.532Z" fill="black"/>
<path d="M86.7607 138.529C84.0383 143.971 79.6948 146.385 73.8715 147.495C68.148 148.586 62.6763 150.71 58.9642 155.419C60.643 153.289 63.5729 152.627 66.0968 152.169C70.7145 151.331 75.4618 150.681 79.821 148.857C83.546 147.3 87.0029 144.773 88.9139 141.216C90.8059 137.692 91.0268 133.609 92.0676 129.812C92.907 126.752 94.7176 122.383 97.5494 120.641C91.0128 124.663 89.9474 132.158 86.7607 138.529Z" fill="black"/>
<path d="M66.5976 148.455C66.6324 147.634 67.2212 146.693 67.2958 145.803C67.9159 138.444 60.1581 135.002 59.0478 128.321C58.4035 124.451 61.2381 118.743 60.91 118.925C60.5299 119.135 60.1704 119.391 59.8312 119.661C59.1487 120.202 58.5443 120.842 58.0351 121.549C56.5278 123.64 55.9228 126.324 56.3013 128.867C57.0583 133.973 61.2353 137.452 64.1029 141.43C65.5849 143.486 66.7513 145.925 66.5976 148.455Z" fill="black"/>
<path d="M157.561 59.5367C158.409 59.6292 159.247 59.7436 160.07 59.8899C150.776 40.3879 130.891 26.8645 107.887 26.8645C83.0728 26.8645 61.8656 42.586 53.6899 64.5884C54.4548 64.5486 55.2068 64.5267 55.9469 64.5239C64.0384 43.726 84.2621 28.9409 107.887 28.9409C129.569 28.9409 148.358 41.4112 157.561 59.5367Z" fill="black"/>
<path d="M159.509 63.7891C159.611 64.0415 159.733 64.2832 159.832 64.5372C160.584 64.5602 161.348 64.605 162.115 64.6689C162.02 64.4088 161.898 64.1615 161.799 63.9035C161.037 63.834 160.273 63.806 159.509 63.7891Z" fill="black"/>
<path d="M176.426 65.3324C177.273 65.7883 178.112 66.288 178.944 66.8111C171.222 34.7311 142.303 10.8149 107.887 10.8149C67.5812 10.8149 34.7896 43.6065 34.7896 83.9121V105.706C35.0402 105.615 35.3032 105.546 35.5852 105.546C36.0686 105.546 36.4931 105.728 36.866 105.979V83.9121C36.866 44.7504 68.7268 12.8908 107.887 12.8908C140.621 12.8908 168.237 35.1556 176.426 65.3324Z" fill="black"/>
<path d="M177.426 69.4585C178.395 74.1267 178.908 78.9603 178.908 83.9116V105.875C179.247 105.684 179.617 105.546 180.034 105.546C180.374 105.546 180.693 105.626 180.984 105.756V83.9116C180.984 79.5104 180.571 75.2055 179.822 71.0162C179.041 70.474 178.241 69.9536 177.426 69.4585Z" fill="black"/>
</svg>
